<svg xmlns="http://www.w3.org/2000/svg" viewBox="0 0 512 512"><rect width="512" height="512" fill="#ffe70c"/><path d="M48 48v416h416V48H48zm228.8 309.8c0 35.5-18.4 64.6-59.2 64.6-28 0-46.7-11-59.4-33.3l28.3-20.9c6.8 12.4 16.4 18.3 25.8 18.3 15 0 22.9-7.6 22.9-32.1V235.2h41.6v122.6zm86.4 64.6c-24.1 0-49.5-9-68.2-26.5l23.8-28.5c13.3 11.3 30.3 19.2 45.6 19.2 17.3 0 25.8-6.8 25.8-17.8 0-11.6-10.5-15.2-26.6-22l-24.1-10.1c-19-7.6-37.1-23.4-37.1-50.2 0-30.5 27.2-54.7 65.7-54.7 21.2 0 43.6 8.5 59.4 24.2l-21.2 26.2c-12.2-9.3-23.5-14.7-38.2-14.7-14.4 0-23.5 6.2-23.5 16.6 0 11.3 12.2 15.2 28 21.7l23.8 9.6c22.4 9 36.5 24 36.5 49.9-.1 30.6-25.6 57.1-69.7 57.1z"/></svg>